<svg xmlns="http://www.w3.org/2000/svg" width="94" height="94" viewBox="0 0 94 94">
  <metadata><?xpacket begin="﻿" id="W5M0MpCehiHzreSzNTczkc9d"?>
<x:xmpmeta xmlns:x="adobe:ns:meta/" x:xmptk="Adobe XMP Core 5.6-c142 79.160924, 2017/07/13-01:06:39        ">
   <rdf:RDF xmlns:rdf="http://www.w3.org/1999/02/22-rdf-syntax-ns#">
      <rdf:Description rdf:about=""/>
   </rdf:RDF>
</x:xmpmeta>
                                                                                                    
                                                                                                    
                                                                                                    
                                                                                                    
                                                                                                    
                                                                                                    
                                                                                                    
                                                                                                    
                                                                                                    
                                                                                                    
                                                                                                    
                                                                                                    
                                                                                                    
                                                                                                    
                                                                                                    
                                                                                                    
                                                                                                    
                                                                                                    
                                                                                                    
                                                                                                    
                           
<?xpacket end="w"?></metadata>
<defs>
    <style>
      .cls-1 {
        fill: #bbedff;
        fill-rule: evenodd;
      }
    </style>
  </defs>
  <path id="_" data-name="&amp;" class="cls-1" d="M75.434,73.4a72.163,72.163,0,0,0,8.581-13.651,86.42,86.42,0,0,0,5.94-15.811H70.874A73.709,73.709,0,0,1,63.493,62L46.452,45.375q9.24-5.34,13.381-11.251a22.242,22.242,0,0,0,4.14-13.051,16.686,16.686,0,0,0-6.69-13.891q-6.691-5.19-17.851-5.19-11.7,0-18.691,5.58a17.893,17.893,0,0,0-6.991,14.7,25.609,25.609,0,0,0,2.04,10.291,38.889,38.889,0,0,0,6.54,9.871q-8.82,5.04-12.451,10.831a25.851,25.851,0,0,0-3.63,14.011q0,11.462,8.581,18.182t23.222,6.721A44.282,44.282,0,0,0,63.973,84.2l6.9,6.781H93.5ZM27.521,58.876a25.09,25.09,0,0,1,5.49-5.52l19.922,19.8a25.828,25.828,0,0,1-13.621,3.66,15.523,15.523,0,0,1-9.931-3.06,9.937,9.937,0,0,1-3.87-8.221A11.344,11.344,0,0,1,27.521,58.876ZM44.292,29.5a35.642,35.642,0,0,1-7.921,5.67q-5.7-6.36-5.7-11.641a6.7,6.7,0,0,1,2.31-5.46,9.609,9.609,0,0,1,6.331-1.92,8.335,8.335,0,0,1,5.58,1.83,6.22,6.22,0,0,1,2.16,5.01A8.971,8.971,0,0,1,44.292,29.5Z"/>
</svg>
