<svg xmlns="http://www.w3.org/2000/svg" width="24.72" height="20.344" viewBox="0 0 24.72 20.344">
  <metadata><?xpacket begin="﻿" id="W5M0MpCehiHzreSzNTczkc9d"?>
<x:xmpmeta xmlns:x="adobe:ns:meta/" x:xmptk="Adobe XMP Core 5.6-c142 79.160924, 2017/07/13-01:06:39        ">
   <rdf:RDF xmlns:rdf="http://www.w3.org/1999/02/22-rdf-syntax-ns#">
      <rdf:Description rdf:about=""/>
   </rdf:RDF>
</x:xmpmeta>
                                                                                                    
                                                                                                    
                                                                                                    
                                                                                                    
                                                                                                    
                                                                                                    
                                                                                                    
                                                                                                    
                                                                                                    
                                                                                                    
                                                                                                    
                                                                                                    
                                                                                                    
                                                                                                    
                                                                                                    
                                                                                                    
                                                                                                    
                                                                                                    
                                                                                                    
                                                                                                    
                           
<?xpacket end="w"?></metadata>
<defs>
    <style>
      .cls-1 {
        fill: #1faae2;
        fill-rule: evenodd;
      }
    </style>
  </defs>
  <path id="twitter" class="cls-1" d="M1424,21.658a5.191,5.191,0,0,1,4.01,1.614,8.162,8.162,0,0,0,2.59-.888l0.63-.35a5.149,5.149,0,0,1-1.64,2.414,2.315,2.315,0,0,1-.56.4V24.86a9.4,9.4,0,0,0,2.87-.788v0.012a8.1,8.1,0,0,1-1.72,2c-0.26.212-.53,0.425-0.79,0.638a15.728,15.728,0,0,1-.23,3.3c-1.27,5.773-4.62,9.692-9.93,11.371a14.963,14.963,0,0,1-7.17.3,18.5,18.5,0,0,1-2.98-.988,11.634,11.634,0,0,1-1.43-.751l-0.45-.275a8.169,8.169,0,0,0,1.62.063c0.5-.082.99-0.06,1.45-0.163a10.379,10.379,0,0,0,3.04-1.113,5.691,5.691,0,0,0,1.37-.913,4.237,4.237,0,0,1-1.51-.275,5.12,5.12,0,0,1-3.21-3.29,4.958,4.958,0,0,0,2.26-.1,3.67,3.67,0,0,1-1.66-.676,4.952,4.952,0,0,1-2.38-4.4c0.17,0.083.34,0.167,0.52,0.25a5.335,5.335,0,0,0,1.06.3,1.5,1.5,0,0,0,.69.063h-0.02c-0.26-.3-0.67-0.5-0.93-0.826a5.3,5.3,0,0,1-1.14-4.666,5.933,5.933,0,0,1,.55-1.339,0.034,0.034,0,0,0,.02.013,3.177,3.177,0,0,0,.46.538,9.014,9.014,0,0,0,1.51,1.463,14.8,14.8,0,0,0,6.19,3.04,9.537,9.537,0,0,0,2.27.3,4.931,4.931,0,0,1,.03-2.414,5.046,5.046,0,0,1,2.87-3.453,5.951,5.951,0,0,1,1.12-.35Z" transform="translate(-1407.19 -21.656)"/>
</svg>
